<svg width="104" height="29" fill="none" xmlns="http://www.w3.org/2000/svg"><path d="M79.048 7.6h-2.76V5.2h8.16v2.4h-2.76V22h-2.64V7.6zm10.4 14.64c-1.296 0-2.288-.368-2.976-1.104-.688-.736-1.032-1.776-1.032-3.12V9.184c0-1.344.344-2.384 1.032-3.12.688-.736 1.68-1.104 2.976-1.104s2.288.368 2.976 1.104c.688.736 1.032 1.776 1.032 3.12v8.832c0 1.344-.344 2.384-1.032 3.12-.688.736-1.68 1.104-2.976 1.104zm0-2.4c.912 0 1.368-.552 1.368-1.656V9.016c0-1.104-.456-1.656-1.368-1.656-.912 0-1.368.552-1.368 1.656v9.168c0 1.104.456 1.656 1.368 1.656zM95.242 5.2h3.912c1.36 0 2.352.32 2.976.96.624.624.936 1.592.936 2.904v1.032c0 1.744-.576 2.848-1.728 3.312v.048c.64.192 1.088.584 1.344 1.176.272.592.408 1.384.408 2.376v2.952c0 .48.016.872.048 1.176.032.288.112.576.24.864h-2.688a3.848 3.848 0 01-.192-.768c-.032-.24-.048-.672-.048-1.296v-3.072c0-.768-.128-1.304-.384-1.608-.24-.304-.664-.456-1.272-.456h-.912V22h-2.64V5.2zm3.6 7.2c.528 0 .92-.136 1.176-.408.272-.272.408-.728.408-1.368V9.328c0-.608-.112-1.048-.336-1.32-.208-.272-.544-.408-1.008-.408h-1.2v4.8h.96zM.984 5.2h2.64v7.08l3.36-7.08h2.64L6.48 11.368 9.672 22h-2.76L4.68 14.512l-1.056 2.136V22H.984V5.2zm13.379 17.04c-1.296 0-2.288-.368-2.976-1.104-.689-.736-1.033-1.776-1.033-3.12V9.184c0-1.344.345-2.384 1.033-3.12.688-.736 1.68-1.104 2.976-1.104s2.288.368 2.976 1.104c.688.736 1.032 1.776 1.032 3.12v8.832c0 1.344-.345 2.384-1.032 3.12-.688.736-1.68 1.104-2.976 1.104zm0-2.4c.912 0 1.367-.552 1.367-1.656V9.016c0-1.104-.456-1.656-1.367-1.656-.912 0-1.368.552-1.368 1.656v9.168c0 1.104.456 1.656 1.368 1.656zM20.155 5.2h3.312l2.568 10.056h.048V5.2h2.352V22h-2.712L22.556 9.736h-.048V22h-2.352V5.2zM33.83 22.24c-1.28 0-2.248-.36-2.904-1.08-.656-.736-.984-1.784-.984-3.144v-.96h2.496v1.152c0 1.088.456 1.632 1.368 1.632.448 0 .784-.128 1.008-.384.24-.272.36-.704.36-1.296 0-.704-.16-1.32-.48-1.848-.32-.544-.912-1.192-1.776-1.944-1.088-.96-1.848-1.824-2.28-2.592-.432-.784-.648-1.664-.648-2.64 0-1.328.336-2.352 1.008-3.072.672-.736 1.648-1.104 2.928-1.104 1.264 0 2.216.368 2.856 1.104.656.72.984 1.76.984 3.12v.696H35.27v-.864c0-.576-.112-.992-.336-1.248-.224-.272-.552-.408-.984-.408-.88 0-1.32.536-1.32 1.608 0 .608.16 1.176.48 1.704.336.528.936 1.168 1.8 1.92 1.104.96 1.864 1.832 2.28 2.616.416.784.624 1.704.624 2.76 0 1.376-.344 2.432-1.032 3.168-.672.736-1.656 1.104-2.952 1.104zM41.392 7.6h-2.76V5.2h8.16v2.4h-2.76V22h-2.64V7.6zm6.678-2.4h3.912c1.36 0 2.352.32 2.976.96.624.624.936 1.592.936 2.904v1.032c0 1.744-.576 2.848-1.728 3.312v.048c.64.192 1.088.584 1.344 1.176.272.592.408 1.384.408 2.376v2.952c0 .48.016.872.048 1.176.032.288.112.576.24.864h-2.688a3.848 3.848 0 01-.192-.768c-.032-.24-.048-.672-.048-1.296v-3.072c0-.768-.128-1.304-.384-1.608-.24-.304-.664-.456-1.272-.456h-.912V22h-2.64V5.2zm3.6 7.2c.528 0 .92-.136 1.176-.408.272-.272.408-.728.408-1.368V9.328c0-.608-.112-1.048-.336-1.32-.208-.272-.544-.408-1.008-.408h-1.2v4.8h.96zm9.92 9.84c-1.28 0-2.256-.36-2.928-1.08-.672-.736-1.008-1.784-1.008-3.144V5.2h2.64v13.008c0 .576.112.992.336 1.248.24.256.576.384 1.008.384.432 0 .76-.128.984-.384.24-.256.36-.672.36-1.248V5.2h2.544v12.816c0 1.36-.336 2.408-1.008 3.144-.672.72-1.648 1.08-2.928 1.08z" fill="#fff"/><path d="M67 14l7.5-8.66v17.32L67 14z" fill="#00A4E5"/></svg>